<svg xmlns="http://www.w3.org/2000/svg" width="100" height="100"><rect x="0" y="0" width="100" height="100" fill="#000000"/><rect stroke="black" transform="translate(-3.5355339059327378 -7.0710678118654755) rotate(45 0 0)" x="0" y="0" width="10" height="5" rx="1.25" ry="1.25" fill="#FF88FF"/> <rect stroke="black" transform="translate(0.0 3.5355339059327378) rotate(-45 0 0)" x="0" y="0" width="10" height="5" rx="1.25" ry="1.25" fill="#FF88FF"/> <rect stroke="black" transform="translate(10.606601717798213 -7.0710678118654755) rotate(45 0 0)" x="0" y="0" width="10" height="5" rx="1.25" ry="1.25" fill="#FF88FF"/> <rect stroke="black" transform="translate(14.142135623730951 3.5355339059327378) rotate(-45 0 0)" x="0" y="0" width="10" height="5" rx="1.25" ry="1.25" fill="#FF88FF"/> <rect stroke="black" transform="translate(24.748737341529164 -7.0710678118654755) rotate(45 0 0)" x="0" y="0" width="10" height="5" rx="1.25" ry="1.25" fill="#FF88FF"/> <rect stroke="black" transform="translate(28.284271247461902 3.5355339059327378) rotate(-45 0 0)" x="0" y="0" width="10" height="5" rx="1.25" ry="1.25" fill="#FF88FF"/> <rect stroke="black" transform="translate(38.890872965260115 -7.0710678118654755) rotate(45 0 0)" x="0" y="0" width="10" height="5" rx="1.25" ry="1.25" fill="#FF88FF"/> <rect stroke="black" transform="translate(42.42640687119285 3.5355339059327378) rotate(-45 0 0)" x="0" y="0" width="10" height="5" rx="1.25" ry="1.25" fill="#FF88FF"/> <rect stroke="black" transform="translate(53.033008588991066 -7.0710678118654755) rotate(45 0 0)" x="0" y="0" width="10" height="5" rx="1.25" ry="1.25" fill="#FF88FF"/> <rect stroke="black" transform="translate(56.568542494923804 3.5355339059327378) rotate(-45 0 0)" x="0" y="0" width="10" height="5" rx="1.25" ry="1.25" fill="#FF88FF"/> <rect stroke="black" transform="translate(67.17514421272202 -7.0710678118654755) rotate(45 0 0)" x="0" y="0" width="10" height="5" rx="1.25" ry="1.25" fill="#FF88FF"/> <rect stroke="black" transform="translate(70.71067811865476 3.5355339059327378) rotate(-45 0 0)" x="0" y="0" width="10" height="5" rx="1.25" ry="1.25" fill="#FF88FF"/> <rect stroke="black" transform="translate(81.31727983645297 -7.0710678118654755) rotate(45 0 0)" x="0" y="0" width="10" height="5" rx="1.25" ry="1.25" fill="#FF88FF"/> <rect stroke="black" transform="translate(84.8528137423857 3.5355339059327378) rotate(-45 0 0)" x="0" y="0" width="10" height="5" rx="1.25" ry="1.25" fill="#FF88FF"/> <rect stroke="black" transform="translate(95.45941546018392 -7.0710678118654755) rotate(45 0 0)" x="0" y="0" width="10" height="5" rx="1.25" ry="1.25" fill="#FF88FF"/> <rect stroke="black" transform="translate(98.99494936611666 3.5355339059327378) rotate(-45 0 0)" x="0" y="0" width="10" height="5" rx="1.25" ry="1.25" fill="#FF88FF"/><rect stroke="black" transform="translate(-3.5355339059327378 0.0) rotate(45 0 0)" x="0" y="0" width="10" height="5" rx="1.25" ry="1.25" fill="#88FF88"/> <rect stroke="black" transform="translate(0.0 10.606601717798213) rotate(-45 0 0)" x="0" y="0" width="10" height="5" rx="1.25" ry="1.25" fill="#88FF88"/> <rect stroke="black" transform="translate(10.606601717798213 0.0) rotate(45 0 0)" x="0" y="0" width="10" height="5" rx="1.25" ry="1.25" fill="#88FF88"/> <rect stroke="black" transform="translate(14.142135623730951 10.606601717798213) rotate(-45 0 0)" x="0" y="0" width="10" height="5" rx="1.25" ry="1.25" fill="#88FF88"/> <rect stroke="black" transform="translate(24.748737341529164 0.0) rotate(45 0 0)" x="0" y="0" width="10" height="5" rx="1.25" ry="1.25" fill="#88FF88"/> <rect stroke="black" transform="translate(28.284271247461902 10.606601717798213) rotate(-45 0 0)" x="0" y="0" width="10" height="5" rx="1.25" ry="1.25" fill="#88FF88"/> <rect stroke="black" transform="translate(38.890872965260115 0.0) rotate(45 0 0)" x="0" y="0" width="10" height="5" rx="1.25" ry="1.25" fill="#88FF88"/> <rect stroke="black" transform="translate(42.42640687119285 10.606601717798213) rotate(-45 0 0)" x="0" y="0" width="10" height="5" rx="1.25" ry="1.25" fill="#88FF88"/> <rect stroke="black" transform="translate(53.033008588991066 0.0) rotate(45 0 0)" x="0" y="0" width="10" height="5" rx="1.25" ry="1.25" fill="#88FF88"/> <rect stroke="black" transform="translate(56.568542494923804 10.606601717798213) rotate(-45 0 0)" x="0" y="0" width="10" height="5" rx="1.25" ry="1.25" fill="#88FF88"/> <rect stroke="black" transform="translate(67.17514421272202 0.0) rotate(45 0 0)" x="0" y="0" width="10" height="5" rx="1.25" ry="1.25" fill="#88FF88"/> <rect stroke="black" transform="translate(70.71067811865476 10.606601717798213) rotate(-45 0 0)" x="0" y="0" width="10" height="5" rx="1.25" ry="1.25" fill="#88FF88"/> <rect stroke="black" transform="translate(81.31727983645297 0.0) rotate(45 0 0)" x="0" y="0" width="10" height="5" rx="1.25" ry="1.25" fill="#88FF88"/> <rect stroke="black" transform="translate(84.8528137423857 10.606601717798213) rotate(-45 0 0)" x="0" y="0" width="10" height="5" rx="1.25" ry="1.25" fill="#88FF88"/> <rect stroke="black" transform="translate(95.45941546018392 0.0) rotate(45 0 0)" x="0" y="0" width="10" height="5" rx="1.25" ry="1.25" fill="#88FF88"/> <rect stroke="black" transform="translate(98.99494936611666 10.606601717798213) rotate(-45 0 0)" x="0" y="0" width="10" height="5" rx="1.25" ry="1.25" fill="#88FF88"/><rect stroke="black" transform="translate(-3.5355339059327378 7.0710678118654755) rotate(45 0 0)" x="0" y="0" width="10" height="5" rx="1.25" ry="1.25" fill="#FF88FF"/> <rect stroke="black" transform="translate(0.0 17.67766952966369) rotate(-45 0 0)" x="0" y="0" width="10" height="5" rx="1.25" ry="1.25" fill="#FF88FF"/> <rect stroke="black" transform="translate(10.606601717798213 7.0710678118654755) rotate(45 0 0)" x="0" y="0" width="10" height="5" rx="1.25" ry="1.25" fill="#FF88FF"/> <rect stroke="black" transform="translate(14.142135623730951 17.67766952966369) rotate(-45 0 0)" x="0" y="0" width="10" height="5" rx="1.25" ry="1.25" fill="#FF88FF"/> <rect stroke="black" transform="translate(24.748737341529164 7.0710678118654755) rotate(45 0 0)" x="0" y="0" width="10" height="5" rx="1.25" ry="1.25" fill="#FF88FF"/> <rect stroke="black" transform="translate(28.284271247461902 17.67766952966369) rotate(-45 0 0)" x="0" y="0" width="10" height="5" rx="1.25" ry="1.25" fill="#FF88FF"/> <rect stroke="black" transform="translate(38.890872965260115 7.0710678118654755) rotate(45 0 0)" x="0" y="0" width="10" height="5" rx="1.25" ry="1.25" fill="#FF88FF"/> <rect stroke="black" transform="translate(42.42640687119285 17.67766952966369) rotate(-45 0 0)" x="0" y="0" width="10" height="5" rx="1.25" ry="1.25" fill="#FF88FF"/> <rect stroke="black" transform="translate(53.033008588991066 7.0710678118654755) rotate(45 0 0)" x="0" y="0" width="10" height="5" rx="1.25" ry="1.25" fill="#FF88FF"/> <rect stroke="black" transform="translate(56.568542494923804 17.67766952966369) rotate(-45 0 0)" x="0" y="0" width="10" height="5" rx="1.25" ry="1.25" fill="#FF88FF"/> <rect stroke="black" transform="translate(67.17514421272202 7.0710678118654755) rotate(45 0 0)" x="0" y="0" width="10" height="5" rx="1.25" ry="1.25" fill="#FF88FF"/> <rect stroke="black" transform="translate(70.71067811865476 17.67766952966369) rotate(-45 0 0)" x="0" y="0" width="10" height="5" rx="1.25" ry="1.25" fill="#FF88FF"/> <rect stroke="black" transform="translate(81.31727983645297 7.0710678118654755) rotate(45 0 0)" x="0" y="0" width="10" height="5" rx="1.25" ry="1.25" fill="#FF88FF"/> <rect stroke="black" transform="translate(84.8528137423857 17.67766952966369) rotate(-45 0 0)" x="0" y="0" width="10" height="5" rx="1.25" ry="1.25" fill="#FF88FF"/> <rect stroke="black" transform="translate(95.45941546018392 7.0710678118654755) rotate(45 0 0)" x="0" y="0" width="10" height="5" rx="1.25" ry="1.25" fill="#FF88FF"/> <rect stroke="black" transform="translate(98.99494936611666 17.67766952966369) rotate(-45 0 0)" x="0" y="0" width="10" height="5" rx="1.25" ry="1.25" fill="#FF88FF"/><rect stroke="black" transform="translate(-3.5355339059327378 14.142135623730951) rotate(45 0 0)" x="0" y="0" width="10" height="5" rx="1.25" ry="1.25" fill="#88FFFF"/> <rect stroke="black" transform="translate(0.0 24.748737341529164) rotate(-45 0 0)" x="0" y="0" width="10" height="5" rx="1.25" ry="1.25" fill="#88FFFF"/> <rect stroke="black" transform="translate(10.606601717798213 14.142135623730951) rotate(45 0 0)" x="0" y="0" width="10" height="5" rx="1.25" ry="1.25" fill="#88FFFF"/> <rect stroke="black" transform="translate(14.142135623730951 24.748737341529164) rotate(-45 0 0)" x="0" y="0" width="10" height="5" rx="1.25" ry="1.25" fill="#88FFFF"/> <rect stroke="black" transform="translate(24.748737341529164 14.142135623730951) rotate(45 0 0)" x="0" y="0" width="10" height="5" rx="1.25" ry="1.25" fill="#88FFFF"/> <rect stroke="black" transform="translate(28.284271247461902 24.748737341529164) rotate(-45 0 0)" x="0" y="0" width="10" height="5" rx="1.25" ry="1.25" fill="#88FFFF"/> <rect stroke="black" transform="translate(38.890872965260115 14.142135623730951) rotate(45 0 0)" x="0" y="0" width="10" height="5" rx="1.25" ry="1.25" fill="#88FFFF"/> <rect stroke="black" transform="translate(42.42640687119285 24.748737341529164) rotate(-45 0 0)" x="0" y="0" width="10" height="5" rx="1.25" ry="1.25" fill="#88FFFF"/> <rect stroke="black" transform="translate(53.033008588991066 14.142135623730951) rotate(45 0 0)" x="0" y="0" width="10" height="5" rx="1.25" ry="1.25" fill="#88FFFF"/> <rect stroke="black" transform="translate(56.568542494923804 24.748737341529164) rotate(-45 0 0)" x="0" y="0" width="10" height="5" rx="1.25" ry="1.25" fill="#88FFFF"/> <rect stroke="black" transform="translate(67.17514421272202 14.142135623730951) rotate(45 0 0)" x="0" y="0" width="10" height="5" rx="1.25" ry="1.25" fill="#88FFFF"/> <rect stroke="black" transform="translate(70.71067811865476 24.748737341529164) rotate(-45 0 0)" x="0" y="0" width="10" height="5" rx="1.25" ry="1.25" fill="#88FFFF"/> <rect stroke="black" transform="translate(81.31727983645297 14.142135623730951) rotate(45 0 0)" x="0" y="0" width="10" height="5" rx="1.25" ry="1.25" fill="#88FFFF"/> <rect stroke="black" transform="translate(84.8528137423857 24.748737341529164) rotate(-45 0 0)" x="0" y="0" width="10" height="5" rx="1.25" ry="1.25" fill="#88FFFF"/> <rect stroke="black" transform="translate(95.45941546018392 14.142135623730951) rotate(45 0 0)" x="0" y="0" width="10" height="5" rx="1.25" ry="1.25" fill="#88FFFF"/> <rect stroke="black" transform="translate(98.99494936611666 24.748737341529164) rotate(-45 0 0)" x="0" y="0" width="10" height="5" rx="1.25" ry="1.25" fill="#88FFFF"/><rect stroke="black" transform="translate(-3.5355339059327378 21.213203435596427) rotate(45 0 0)" x="0" y="0" width="10" height="5" rx="1.25" ry="1.25" fill="#FF8888"/> <rect stroke="black" transform="translate(0.0 31.81980515339464) rotate(-45 0 0)" x="0" y="0" width="10" height="5" rx="1.25" ry="1.25" fill="#FF8888"/> <rect stroke="black" transform="translate(10.606601717798213 21.213203435596427) rotate(45 0 0)" x="0" y="0" width="10" height="5" rx="1.25" ry="1.25" fill="#FF8888"/> <rect stroke="black" transform="translate(14.142135623730951 31.81980515339464) rotate(-45 0 0)" x="0" y="0" width="10" height="5" rx="1.25" ry="1.25" fill="#FF8888"/> <rect stroke="black" transform="translate(24.748737341529164 21.213203435596427) rotate(45 0 0)" x="0" y="0" width="10" height="5" rx="1.25" ry="1.25" fill="#FF8888"/> <rect stroke="black" transform="translate(28.284271247461902 31.81980515339464) rotate(-45 0 0)" x="0" y="0" width="10" height="5" rx="1.25" ry="1.25" fill="#FF8888"/> <rect stroke="black" transform="translate(38.890872965260115 21.213203435596427) rotate(45 0 0)" x="0" y="0" width="10" height="5" rx="1.25" ry="1.25" fill="#FF8888"/> <rect stroke="black" transform="translate(42.42640687119285 31.81980515339464) rotate(-45 0 0)" x="0" y="0" width="10" height="5" rx="1.25" ry="1.25" fill="#FF8888"/> <rect stroke="black" transform="translate(53.033008588991066 21.213203435596427) rotate(45 0 0)" x="0" y="0" width="10" height="5" rx="1.25" ry="1.25" fill="#FF8888"/> <rect stroke="black" transform="translate(56.568542494923804 31.81980515339464) rotate(-45 0 0)" x="0" y="0" width="10" height="5" rx="1.25" ry="1.25" fill="#FF8888"/> <rect stroke="black" transform="translate(67.17514421272202 21.213203435596427) rotate(45 0 0)" x="0" y="0" width="10" height="5" rx="1.25" ry="1.25" fill="#FF8888"/> <rect stroke="black" transform="translate(70.71067811865476 31.81980515339464) rotate(-45 0 0)" x="0" y="0" width="10" height="5" rx="1.25" ry="1.25" fill="#FF8888"/> <rect stroke="black" transform="translate(81.31727983645297 21.213203435596427) rotate(45 0 0)" x="0" y="0" width="10" height="5" rx="1.25" ry="1.25" fill="#FF8888"/> <rect stroke="black" transform="translate(84.8528137423857 31.81980515339464) rotate(-45 0 0)" x="0" y="0" width="10" height="5" rx="1.25" ry="1.25" fill="#FF8888"/> <rect stroke="black" transform="translate(95.45941546018392 21.213203435596427) rotate(45 0 0)" x="0" y="0" width="10" height="5" rx="1.25" ry="1.25" fill="#FF8888"/> <rect stroke="black" transform="translate(98.99494936611666 31.81980515339464) rotate(-45 0 0)" x="0" y="0" width="10" height="5" rx="1.25" ry="1.25" fill="#FF8888"/><rect stroke="black" transform="translate(-3.5355339059327378 28.284271247461902) rotate(45 0 0)" x="0" y="0" width="10" height="5" rx="1.25" ry="1.25" fill="#88FFFF"/> <rect stroke="black" transform="translate(0.0 38.890872965260115) rotate(-45 0 0)" x="0" y="0" width="10" height="5" rx="1.25" ry="1.25" fill="#88FFFF"/> <rect stroke="black" transform="translate(10.606601717798213 28.284271247461902) rotate(45 0 0)" x="0" y="0" width="10" height="5" rx="1.25" ry="1.25" fill="#88FFFF"/> <rect stroke="black" transform="translate(14.142135623730951 38.890872965260115) rotate(-45 0 0)" x="0" y="0" width="10" height="5" rx="1.25" ry="1.25" fill="#88FFFF"/> <rect stroke="black" transform="translate(24.748737341529164 28.284271247461902) rotate(45 0 0)" x="0" y="0" width="10" height="5" rx="1.25" ry="1.25" fill="#88FFFF"/> <rect stroke="black" transform="translate(28.284271247461902 38.890872965260115) rotate(-45 0 0)" x="0" y="0" width="10" height="5" rx="1.25" ry="1.25" fill="#88FFFF"/> <rect stroke="black" transform="translate(38.890872965260115 28.284271247461902) rotate(45 0 0)" x="0" y="0" width="10" height="5" rx="1.25" ry="1.25" fill="#88FFFF"/> <rect stroke="black" transform="translate(42.42640687119285 38.890872965260115) rotate(-45 0 0)" x="0" y="0" width="10" height="5" rx="1.25" ry="1.25" fill="#88FFFF"/> <rect stroke="black" transform="translate(53.033008588991066 28.284271247461902) rotate(45 0 0)" x="0" y="0" width="10" height="5" rx="1.25" ry="1.25" fill="#88FFFF"/> <rect stroke="black" transform="translate(56.568542494923804 38.890872965260115) rotate(-45 0 0)" x="0" y="0" width="10" height="5" rx="1.25" ry="1.25" fill="#88FFFF"/> <rect stroke="black" transform="translate(67.17514421272202 28.284271247461902) rotate(45 0 0)" x="0" y="0" width="10" height="5" rx="1.25" ry="1.25" fill="#88FFFF"/> <rect stroke="black" transform="translate(70.71067811865476 38.890872965260115) rotate(-45 0 0)" x="0" y="0" width="10" height="5" rx="1.25" ry="1.25" fill="#88FFFF"/> <rect stroke="black" transform="translate(81.31727983645297 28.284271247461902) rotate(45 0 0)" x="0" y="0" width="10" height="5" rx="1.25" ry="1.25" fill="#88FFFF"/> <rect stroke="black" transform="translate(84.8528137423857 38.890872965260115) rotate(-45 0 0)" x="0" y="0" width="10" height="5" rx="1.25" ry="1.25" fill="#88FFFF"/> <rect stroke="black" transform="translate(95.45941546018392 28.284271247461902) rotate(45 0 0)" x="0" y="0" width="10" height="5" rx="1.25" ry="1.25" fill="#88FFFF"/> <rect stroke="black" transform="translate(98.99494936611666 38.890872965260115) rotate(-45 0 0)" x="0" y="0" width="10" height="5" rx="1.25" ry="1.25" fill="#88FFFF"/><rect stroke="black" transform="translate(-3.5355339059327378 35.35533905932738) rotate(45 0 0)" x="0" y="0" width="10" height="5" rx="1.25" ry="1.25" fill="#FF88FF"/> <rect stroke="black" transform="translate(0.0 45.96194077712559) rotate(-45 0 0)" x="0" y="0" width="10" height="5" rx="1.25" ry="1.25" fill="#FF88FF"/> <rect stroke="black" transform="translate(10.606601717798213 35.35533905932738) rotate(45 0 0)" x="0" y="0" width="10" height="5" rx="1.25" ry="1.25" fill="#FF88FF"/> <rect stroke="black" transform="translate(14.142135623730951 45.96194077712559) rotate(-45 0 0)" x="0" y="0" width="10" height="5" rx="1.25" ry="1.25" fill="#FF88FF"/> <rect stroke="black" transform="translate(24.748737341529164 35.35533905932738) rotate(45 0 0)" x="0" y="0" width="10" height="5" rx="1.25" ry="1.25" fill="#FF88FF"/> <rect stroke="black" transform="translate(28.284271247461902 45.96194077712559) rotate(-45 0 0)" x="0" y="0" width="10" height="5" rx="1.25" ry="1.25" fill="#FF88FF"/> <rect stroke="black" transform="translate(38.890872965260115 35.35533905932738) rotate(45 0 0)" x="0" y="0" width="10" height="5" rx="1.25" ry="1.25" fill="#FF88FF"/> <rect stroke="black" transform="translate(42.42640687119285 45.96194077712559) rotate(-45 0 0)" x="0" y="0" width="10" height="5" rx="1.25" ry="1.25" fill="#FF88FF"/> <rect stroke="black" transform="translate(53.033008588991066 35.35533905932738) rotate(45 0 0)" x="0" y="0" width="10" height="5" rx="1.25" ry="1.25" fill="#FF88FF"/> <rect stroke="black" transform="translate(56.568542494923804 45.96194077712559) rotate(-45 0 0)" x="0" y="0" width="10" height="5" rx="1.25" ry="1.25" fill="#FF88FF"/> <rect stroke="black" transform="translate(67.17514421272202 35.35533905932738) rotate(45 0 0)" x="0" y="0" width="10" height="5" rx="1.25" ry="1.25" fill="#FF88FF"/> <rect stroke="black" transform="translate(70.71067811865476 45.96194077712559) rotate(-45 0 0)" x="0" y="0" width="10" height="5" rx="1.25" ry="1.25" fill="#FF88FF"/> <rect stroke="black" transform="translate(81.31727983645297 35.35533905932738) rotate(45 0 0)" x="0" y="0" width="10" height="5" rx="1.25" ry="1.25" fill="#FF88FF"/> <rect stroke="black" transform="translate(84.8528137423857 45.96194077712559) rotate(-45 0 0)" x="0" y="0" width="10" height="5" rx="1.25" ry="1.25" fill="#FF88FF"/> <rect stroke="black" transform="translate(95.45941546018392 35.35533905932738) rotate(45 0 0)" x="0" y="0" width="10" height="5" rx="1.25" ry="1.25" fill="#FF88FF"/> <rect stroke="black" transform="translate(98.99494936611666 45.96194077712559) rotate(-45 0 0)" x="0" y="0" width="10" height="5" rx="1.25" ry="1.25" fill="#FF88FF"/><rect stroke="black" transform="translate(-3.5355339059327378 42.42640687119285) rotate(45 0 0)" x="0" y="0" width="10" height="5" rx="1.25" ry="1.25" fill="#88FF88"/> <rect stroke="black" transform="translate(0.0 53.033008588991066) rotate(-45 0 0)" x="0" y="0" width="10" height="5" rx="1.25" ry="1.25" fill="#88FF88"/> <rect stroke="black" transform="translate(10.606601717798213 42.42640687119285) rotate(45 0 0)" x="0" y="0" width="10" height="5" rx="1.25" ry="1.25" fill="#88FF88"/> <rect stroke="black" transform="translate(14.142135623730951 53.033008588991066) rotate(-45 0 0)" x="0" y="0" width="10" height="5" rx="1.25" ry="1.25" fill="#88FF88"/> <rect stroke="black" transform="translate(24.748737341529164 42.42640687119285) rotate(45 0 0)" x="0" y="0" width="10" height="5" rx="1.25" ry="1.25" fill="#88FF88"/> <rect stroke="black" transform="translate(28.284271247461902 53.033008588991066) rotate(-45 0 0)" x="0" y="0" width="10" height="5" rx="1.25" ry="1.25" fill="#88FF88"/> <rect stroke="black" transform="translate(38.890872965260115 42.42640687119285) rotate(45 0 0)" x="0" y="0" width="10" height="5" rx="1.25" ry="1.25" fill="#88FF88"/> <rect stroke="black" transform="translate(42.42640687119285 53.033008588991066) rotate(-45 0 0)" x="0" y="0" width="10" height="5" rx="1.25" ry="1.25" fill="#88FF88"/> <rect stroke="black" transform="translate(53.033008588991066 42.42640687119285) rotate(45 0 0)" x="0" y="0" width="10" height="5" rx="1.25" ry="1.25" fill="#88FF88"/> <rect stroke="black" transform="translate(56.568542494923804 53.033008588991066) rotate(-45 0 0)" x="0" y="0" width="10" height="5" rx="1.25" ry="1.25" fill="#88FF88"/> <rect stroke="black" transform="translate(67.17514421272202 42.42640687119285) rotate(45 0 0)" x="0" y="0" width="10" height="5" rx="1.25" ry="1.25" fill="#88FF88"/> <rect stroke="black" transform="translate(70.71067811865476 53.033008588991066) rotate(-45 0 0)" x="0" y="0" width="10" height="5" rx="1.25" ry="1.25" fill="#88FF88"/> <rect stroke="black" transform="translate(81.31727983645297 42.42640687119285) rotate(45 0 0)" x="0" y="0" width="10" height="5" rx="1.25" ry="1.25" fill="#88FF88"/> <rect stroke="black" transform="translate(84.8528137423857 53.033008588991066) rotate(-45 0 0)" x="0" y="0" width="10" height="5" rx="1.25" ry="1.25" fill="#88FF88"/> <rect stroke="black" transform="translate(95.45941546018392 42.42640687119285) rotate(45 0 0)" x="0" y="0" width="10" height="5" rx="1.25" ry="1.25" fill="#88FF88"/> <rect stroke="black" transform="translate(98.99494936611666 53.033008588991066) rotate(-45 0 0)" x="0" y="0" width="10" height="5" rx="1.25" ry="1.25" fill="#88FF88"/><rect stroke="black" transform="translate(-3.5355339059327378 49.49747468305833) rotate(45 0 0)" x="0" y="0" width="10" height="5" rx="1.25" ry="1.25" fill="#FF88FF"/> <rect stroke="black" transform="translate(0.0 60.10407640085654) rotate(-45 0 0)" x="0" y="0" width="10" height="5" rx="1.25" ry="1.25" fill="#FF88FF"/> <rect stroke="black" transform="translate(10.606601717798213 49.49747468305833) rotate(45 0 0)" x="0" y="0" width="10" height="5" rx="1.25" ry="1.25" fill="#FF88FF"/> <rect stroke="black" transform="translate(14.142135623730951 60.10407640085654) rotate(-45 0 0)" x="0" y="0" width="10" height="5" rx="1.25" ry="1.25" fill="#FF88FF"/> <rect stroke="black" transform="translate(24.748737341529164 49.49747468305833) rotate(45 0 0)" x="0" y="0" width="10" height="5" rx="1.25" ry="1.25" fill="#FF88FF"/> <rect stroke="black" transform="translate(28.284271247461902 60.10407640085654) rotate(-45 0 0)" x="0" y="0" width="10" height="5" rx="1.25" ry="1.25" fill="#FF88FF"/> <rect stroke="black" transform="translate(38.890872965260115 49.49747468305833) rotate(45 0 0)" x="0" y="0" width="10" height="5" rx="1.25" ry="1.25" fill="#FF88FF"/> <rect stroke="black" transform="translate(42.42640687119285 60.10407640085654) rotate(-45 0 0)" x="0" y="0" width="10" height="5" rx="1.25" ry="1.25" fill="#FF88FF"/> <rect stroke="black" transform="translate(53.033008588991066 49.49747468305833) rotate(45 0 0)" x="0" y="0" width="10" height="5" rx="1.25" ry="1.25" fill="#FF88FF"/> <rect stroke="black" transform="translate(56.568542494923804 60.10407640085654) rotate(-45 0 0)" x="0" y="0" width="10" height="5" rx="1.25" ry="1.25" fill="#FF88FF"/> <rect stroke="black" transform="translate(67.17514421272202 49.49747468305833) rotate(45 0 0)" x="0" y="0" width="10" height="5" rx="1.25" ry="1.25" fill="#FF88FF"/> <rect stroke="black" transform="translate(70.71067811865476 60.10407640085654) rotate(-45 0 0)" x="0" y="0" width="10" height="5" rx="1.25" ry="1.25" fill="#FF88FF"/> <rect stroke="black" transform="translate(81.31727983645297 49.49747468305833) rotate(45 0 0)" x="0" y="0" width="10" height="5" rx="1.25" ry="1.25" fill="#FF88FF"/> <rect stroke="black" transform="translate(84.8528137423857 60.10407640085654) rotate(-45 0 0)" x="0" y="0" width="10" height="5" rx="1.25" ry="1.25" fill="#FF88FF"/> <rect stroke="black" transform="translate(95.45941546018392 49.49747468305833) rotate(45 0 0)" x="0" y="0" width="10" height="5" rx="1.25" ry="1.25" fill="#FF88FF"/> <rect stroke="black" transform="translate(98.99494936611666 60.10407640085654) rotate(-45 0 0)" x="0" y="0" width="10" height="5" rx="1.25" ry="1.25" fill="#FF88FF"/><rect stroke="black" transform="translate(-3.5355339059327378 56.568542494923804) rotate(45 0 0)" x="0" y="0" width="10" height="5" rx="1.25" ry="1.25" fill="#88FFFF"/> <rect stroke="black" transform="translate(0.0 67.17514421272202) rotate(-45 0 0)" x="0" y="0" width="10" height="5" rx="1.25" ry="1.25" fill="#88FFFF"/> <rect stroke="black" transform="translate(10.606601717798213 56.568542494923804) rotate(45 0 0)" x="0" y="0" width="10" height="5" rx="1.25" ry="1.25" fill="#88FFFF"/> <rect stroke="black" transform="translate(14.142135623730951 67.17514421272202) rotate(-45 0 0)" x="0" y="0" width="10" height="5" rx="1.25" ry="1.25" fill="#88FFFF"/> <rect stroke="black" transform="translate(24.748737341529164 56.568542494923804) rotate(45 0 0)" x="0" y="0" width="10" height="5" rx="1.25" ry="1.25" fill="#88FFFF"/> <rect stroke="black" transform="translate(28.284271247461902 67.17514421272202) rotate(-45 0 0)" x="0" y="0" width="10" height="5" rx="1.25" ry="1.25" fill="#88FFFF"/> <rect stroke="black" transform="translate(38.890872965260115 56.568542494923804) rotate(45 0 0)" x="0" y="0" width="10" height="5" rx="1.25" ry="1.25" fill="#88FFFF"/> <rect stroke="black" transform="translate(42.42640687119285 67.17514421272202) rotate(-45 0 0)" x="0" y="0" width="10" height="5" rx="1.25" ry="1.25" fill="#88FFFF"/> <rect stroke="black" transform="translate(53.033008588991066 56.568542494923804) rotate(45 0 0)" x="0" y="0" width="10" height="5" rx="1.25" ry="1.25" fill="#88FFFF"/> <rect stroke="black" transform="translate(56.568542494923804 67.17514421272202) rotate(-45 0 0)" x="0" y="0" width="10" height="5" rx="1.25" ry="1.25" fill="#88FFFF"/> <rect stroke="black" transform="translate(67.17514421272202 56.568542494923804) rotate(45 0 0)" x="0" y="0" width="10" height="5" rx="1.25" ry="1.25" fill="#88FFFF"/> <rect stroke="black" transform="translate(70.71067811865476 67.17514421272202) rotate(-45 0 0)" x="0" y="0" width="10" height="5" rx="1.25" ry="1.25" fill="#88FFFF"/> <rect stroke="black" transform="translate(81.31727983645297 56.568542494923804) rotate(45 0 0)" x="0" y="0" width="10" height="5" rx="1.25" ry="1.25" fill="#88FFFF"/> <rect stroke="black" transform="translate(84.8528137423857 67.17514421272202) rotate(-45 0 0)" x="0" y="0" width="10" height="5" rx="1.25" ry="1.25" fill="#88FFFF"/> <rect stroke="black" transform="translate(95.45941546018392 56.568542494923804) rotate(45 0 0)" x="0" y="0" width="10" height="5" rx="1.25" ry="1.25" fill="#88FFFF"/> <rect stroke="black" transform="translate(98.99494936611666 67.17514421272202) rotate(-45 0 0)" x="0" y="0" width="10" height="5" rx="1.25" ry="1.25" fill="#88FFFF"/><rect stroke="black" transform="translate(-3.5355339059327378 63.63961030678928) rotate(45 0 0)" x="0" y="0" width="10" height="5" rx="1.25" ry="1.25" fill="#FF8888"/> <rect stroke="black" transform="translate(0.0 74.24621202458749) rotate(-45 0 0)" x="0" y="0" width="10" height="5" rx="1.25" ry="1.25" fill="#FF8888"/> <rect stroke="black" transform="translate(10.606601717798213 63.63961030678928) rotate(45 0 0)" x="0" y="0" width="10" height="5" rx="1.25" ry="1.25" fill="#FF8888"/> <rect stroke="black" transform="translate(14.142135623730951 74.24621202458749) rotate(-45 0 0)" x="0" y="0" width="10" height="5" rx="1.25" ry="1.25" fill="#FF8888"/> <rect stroke="black" transform="translate(24.748737341529164 63.63961030678928) rotate(45 0 0)" x="0" y="0" width="10" height="5" rx="1.25" ry="1.25" fill="#FF8888"/> <rect stroke="black" transform="translate(28.284271247461902 74.24621202458749) rotate(-45 0 0)" x="0" y="0" width="10" height="5" rx="1.25" ry="1.25" fill="#FF8888"/> <rect stroke="black" transform="translate(38.890872965260115 63.63961030678928) rotate(45 0 0)" x="0" y="0" width="10" height="5" rx="1.25" ry="1.25" fill="#FF8888"/> <rect stroke="black" transform="translate(42.42640687119285 74.24621202458749) rotate(-45 0 0)" x="0" y="0" width="10" height="5" rx="1.25" ry="1.25" fill="#FF8888"/> <rect stroke="black" transform="translate(53.033008588991066 63.63961030678928) rotate(45 0 0)" x="0" y="0" width="10" height="5" rx="1.25" ry="1.25" fill="#FF8888"/> <rect stroke="black" transform="translate(56.568542494923804 74.24621202458749) rotate(-45 0 0)" x="0" y="0" width="10" height="5" rx="1.25" ry="1.25" fill="#FF8888"/> <rect stroke="black" transform="translate(67.17514421272202 63.63961030678928) rotate(45 0 0)" x="0" y="0" width="10" height="5" rx="1.25" ry="1.25" fill="#FF8888"/> <rect stroke="black" transform="translate(70.71067811865476 74.24621202458749) rotate(-45 0 0)" x="0" y="0" width="10" height="5" rx="1.25" ry="1.25" fill="#FF8888"/> <rect stroke="black" transform="translate(81.31727983645297 63.63961030678928) rotate(45 0 0)" x="0" y="0" width="10" height="5" rx="1.25" ry="1.25" fill="#FF8888"/> <rect stroke="black" transform="translate(84.8528137423857 74.24621202458749) rotate(-45 0 0)" x="0" y="0" width="10" height="5" rx="1.25" ry="1.25" fill="#FF8888"/> <rect stroke="black" transform="translate(95.45941546018392 63.63961030678928) rotate(45 0 0)" x="0" y="0" width="10" height="5" rx="1.25" ry="1.25" fill="#FF8888"/> <rect stroke="black" transform="translate(98.99494936611666 74.24621202458749) rotate(-45 0 0)" x="0" y="0" width="10" height="5" rx="1.25" ry="1.25" fill="#FF8888"/><rect stroke="black" transform="translate(-3.5355339059327378 70.71067811865476) rotate(45 0 0)" x="0" y="0" width="10" height="5" rx="1.25" ry="1.25" fill="#88FFFF"/> <rect stroke="black" transform="translate(0.0 81.31727983645297) rotate(-45 0 0)" x="0" y="0" width="10" height="5" rx="1.25" ry="1.25" fill="#88FFFF"/> <rect stroke="black" transform="translate(10.606601717798213 70.71067811865476) rotate(45 0 0)" x="0" y="0" width="10" height="5" rx="1.25" ry="1.25" fill="#88FFFF"/> <rect stroke="black" transform="translate(14.142135623730951 81.31727983645297) rotate(-45 0 0)" x="0" y="0" width="10" height="5" rx="1.25" ry="1.25" fill="#88FFFF"/> <rect stroke="black" transform="translate(24.748737341529164 70.71067811865476) rotate(45 0 0)" x="0" y="0" width="10" height="5" rx="1.25" ry="1.25" fill="#88FFFF"/> <rect stroke="black" transform="translate(28.284271247461902 81.31727983645297) rotate(-45 0 0)" x="0" y="0" width="10" height="5" rx="1.25" ry="1.25" fill="#88FFFF"/> <rect stroke="black" transform="translate(38.890872965260115 70.71067811865476) rotate(45 0 0)" x="0" y="0" width="10" height="5" rx="1.25" ry="1.25" fill="#88FFFF"/> <rect stroke="black" transform="translate(42.42640687119285 81.31727983645297) rotate(-45 0 0)" x="0" y="0" width="10" height="5" rx="1.25" ry="1.25" fill="#88FFFF"/> <rect stroke="black" transform="translate(53.033008588991066 70.71067811865476) rotate(45 0 0)" x="0" y="0" width="10" height="5" rx="1.25" ry="1.25" fill="#88FFFF"/> <rect stroke="black" transform="translate(56.568542494923804 81.31727983645297) rotate(-45 0 0)" x="0" y="0" width="10" height="5" rx="1.25" ry="1.25" fill="#88FFFF"/> <rect stroke="black" transform="translate(67.17514421272202 70.71067811865476) rotate(45 0 0)" x="0" y="0" width="10" height="5" rx="1.25" ry="1.25" fill="#88FFFF"/> <rect stroke="black" transform="translate(70.71067811865476 81.31727983645297) rotate(-45 0 0)" x="0" y="0" width="10" height="5" rx="1.25" ry="1.25" fill="#88FFFF"/> <rect stroke="black" transform="translate(81.31727983645297 70.71067811865476) rotate(45 0 0)" x="0" y="0" width="10" height="5" rx="1.25" ry="1.25" fill="#88FFFF"/> <rect stroke="black" transform="translate(84.8528137423857 81.31727983645297) rotate(-45 0 0)" x="0" y="0" width="10" height="5" rx="1.25" ry="1.25" fill="#88FFFF"/> <rect stroke="black" transform="translate(95.45941546018392 70.71067811865476) rotate(45 0 0)" x="0" y="0" width="10" height="5" rx="1.25" ry="1.25" fill="#88FFFF"/> <rect stroke="black" transform="translate(98.99494936611666 81.31727983645297) rotate(-45 0 0)" x="0" y="0" width="10" height="5" rx="1.25" ry="1.25" fill="#88FFFF"/><rect stroke="black" transform="translate(-3.5355339059327378 77.78174593052023) rotate(45 0 0)" x="0" y="0" width="10" height="5" rx="1.25" ry="1.25" fill="#FF88FF"/> <rect stroke="black" transform="translate(0.0 88.38834764831844) rotate(-45 0 0)" x="0" y="0" width="10" height="5" rx="1.25" ry="1.25" fill="#FF88FF"/> <rect stroke="black" transform="translate(10.606601717798213 77.78174593052023) rotate(45 0 0)" x="0" y="0" width="10" height="5" rx="1.25" ry="1.25" fill="#FF88FF"/> <rect stroke="black" transform="translate(14.142135623730951 88.38834764831844) rotate(-45 0 0)" x="0" y="0" width="10" height="5" rx="1.25" ry="1.25" fill="#FF88FF"/> <rect stroke="black" transform="translate(24.748737341529164 77.78174593052023) rotate(45 0 0)" x="0" y="0" width="10" height="5" rx="1.25" ry="1.25" fill="#FF88FF"/> <rect stroke="black" transform="translate(28.284271247461902 88.38834764831844) rotate(-45 0 0)" x="0" y="0" width="10" height="5" rx="1.25" ry="1.25" fill="#FF88FF"/> <rect stroke="black" transform="translate(38.890872965260115 77.78174593052023) rotate(45 0 0)" x="0" y="0" width="10" height="5" rx="1.25" ry="1.25" fill="#FF88FF"/> <rect stroke="black" transform="translate(42.42640687119285 88.38834764831844) rotate(-45 0 0)" x="0" y="0" width="10" height="5" rx="1.25" ry="1.25" fill="#FF88FF"/> <rect stroke="black" transform="translate(53.033008588991066 77.78174593052023) rotate(45 0 0)" x="0" y="0" width="10" height="5" rx="1.25" ry="1.25" fill="#FF88FF"/> <rect stroke="black" transform="translate(56.568542494923804 88.38834764831844) rotate(-45 0 0)" x="0" y="0" width="10" height="5" rx="1.25" ry="1.25" fill="#FF88FF"/> <rect stroke="black" transform="translate(67.17514421272202 77.78174593052023) rotate(45 0 0)" x="0" y="0" width="10" height="5" rx="1.25" ry="1.25" fill="#FF88FF"/> <rect stroke="black" transform="translate(70.71067811865476 88.38834764831844) rotate(-45 0 0)" x="0" y="0" width="10" height="5" rx="1.25" ry="1.25" fill="#FF88FF"/> <rect stroke="black" transform="translate(81.31727983645297 77.78174593052023) rotate(45 0 0)" x="0" y="0" width="10" height="5" rx="1.25" ry="1.25" fill="#FF88FF"/> <rect stroke="black" transform="translate(84.8528137423857 88.38834764831844) rotate(-45 0 0)" x="0" y="0" width="10" height="5" rx="1.25" ry="1.25" fill="#FF88FF"/> <rect stroke="black" transform="translate(95.45941546018392 77.78174593052023) rotate(45 0 0)" x="0" y="0" width="10" height="5" rx="1.25" ry="1.25" fill="#FF88FF"/> <rect stroke="black" transform="translate(98.99494936611666 88.38834764831844) rotate(-45 0 0)" x="0" y="0" width="10" height="5" rx="1.25" ry="1.25" fill="#FF88FF"/><rect stroke="black" transform="translate(-3.5355339059327378 84.8528137423857) rotate(45 0 0)" x="0" y="0" width="10" height="5" rx="1.25" ry="1.25" fill="#88FF88"/> <rect stroke="black" transform="translate(0.0 95.45941546018392) rotate(-45 0 0)" x="0" y="0" width="10" height="5" rx="1.25" ry="1.25" fill="#88FF88"/> <rect stroke="black" transform="translate(10.606601717798213 84.8528137423857) rotate(45 0 0)" x="0" y="0" width="10" height="5" rx="1.25" ry="1.25" fill="#88FF88"/> <rect stroke="black" transform="translate(14.142135623730951 95.45941546018392) rotate(-45 0 0)" x="0" y="0" width="10" height="5" rx="1.25" ry="1.25" fill="#88FF88"/> <rect stroke="black" transform="translate(24.748737341529164 84.8528137423857) rotate(45 0 0)" x="0" y="0" width="10" height="5" rx="1.25" ry="1.25" fill="#88FF88"/> <rect stroke="black" transform="translate(28.284271247461902 95.45941546018392) rotate(-45 0 0)" x="0" y="0" width="10" height="5" rx="1.25" ry="1.25" fill="#88FF88"/> <rect stroke="black" transform="translate(38.890872965260115 84.8528137423857) rotate(45 0 0)" x="0" y="0" width="10" height="5" rx="1.25" ry="1.25" fill="#88FF88"/> <rect stroke="black" transform="translate(42.42640687119285 95.45941546018392) rotate(-45 0 0)" x="0" y="0" width="10" height="5" rx="1.25" ry="1.25" fill="#88FF88"/> <rect stroke="black" transform="translate(53.033008588991066 84.8528137423857) rotate(45 0 0)" x="0" y="0" width="10" height="5" rx="1.25" ry="1.25" fill="#88FF88"/> <rect stroke="black" transform="translate(56.568542494923804 95.45941546018392) rotate(-45 0 0)" x="0" y="0" width="10" height="5" rx="1.25" ry="1.25" fill="#88FF88"/> <rect stroke="black" transform="translate(67.17514421272202 84.8528137423857) rotate(45 0 0)" x="0" y="0" width="10" height="5" rx="1.25" ry="1.25" fill="#88FF88"/> <rect stroke="black" transform="translate(70.71067811865476 95.45941546018392) rotate(-45 0 0)" x="0" y="0" width="10" height="5" rx="1.25" ry="1.25" fill="#88FF88"/> <rect stroke="black" transform="translate(81.31727983645297 84.8528137423857) rotate(45 0 0)" x="0" y="0" width="10" height="5" rx="1.25" ry="1.25" fill="#88FF88"/> <rect stroke="black" transform="translate(84.8528137423857 95.45941546018392) rotate(-45 0 0)" x="0" y="0" width="10" height="5" rx="1.25" ry="1.25" fill="#88FF88"/> <rect stroke="black" transform="translate(95.45941546018392 84.8528137423857) rotate(45 0 0)" x="0" y="0" width="10" height="5" rx="1.25" ry="1.25" fill="#88FF88"/> <rect stroke="black" transform="translate(98.99494936611666 95.45941546018392) rotate(-45 0 0)" x="0" y="0" width="10" height="5" rx="1.25" ry="1.25" fill="#88FF88"/><rect stroke="black" transform="translate(-3.5355339059327378 91.92388155425118) rotate(45 0 0)" x="0" y="0" width="10" height="5" rx="1.25" ry="1.25" fill="#FF88FF"/> <rect stroke="black" transform="translate(0.0 102.5304832720494) rotate(-45 0 0)" x="0" y="0" width="10" height="5" rx="1.25" ry="1.25" fill="#FF88FF"/> <rect stroke="black" transform="translate(10.606601717798213 91.92388155425118) rotate(45 0 0)" x="0" y="0" width="10" height="5" rx="1.25" ry="1.25" fill="#FF88FF"/> <rect stroke="black" transform="translate(14.142135623730951 102.5304832720494) rotate(-45 0 0)" x="0" y="0" width="10" height="5" rx="1.25" ry="1.25" fill="#FF88FF"/> <rect stroke="black" transform="translate(24.748737341529164 91.92388155425118) rotate(45 0 0)" x="0" y="0" width="10" height="5" rx="1.25" ry="1.25" fill="#FF88FF"/> <rect stroke="black" transform="translate(28.284271247461902 102.5304832720494) rotate(-45 0 0)" x="0" y="0" width="10" height="5" rx="1.25" ry="1.25" fill="#FF88FF"/> <rect stroke="black" transform="translate(38.890872965260115 91.92388155425118) rotate(45 0 0)" x="0" y="0" width="10" height="5" rx="1.25" ry="1.25" fill="#FF88FF"/> <rect stroke="black" transform="translate(42.42640687119285 102.5304832720494) rotate(-45 0 0)" x="0" y="0" width="10" height="5" rx="1.25" ry="1.25" fill="#FF88FF"/> <rect stroke="black" transform="translate(53.033008588991066 91.92388155425118) rotate(45 0 0)" x="0" y="0" width="10" height="5" rx="1.25" ry="1.25" fill="#FF88FF"/> <rect stroke="black" transform="translate(56.568542494923804 102.5304832720494) rotate(-45 0 0)" x="0" y="0" width="10" height="5" rx="1.25" ry="1.25" fill="#FF88FF"/> <rect stroke="black" transform="translate(67.17514421272202 91.92388155425118) rotate(45 0 0)" x="0" y="0" width="10" height="5" rx="1.25" ry="1.25" fill="#FF88FF"/> <rect stroke="black" transform="translate(70.71067811865476 102.5304832720494) rotate(-45 0 0)" x="0" y="0" width="10" height="5" rx="1.25" ry="1.25" fill="#FF88FF"/> <rect stroke="black" transform="translate(81.31727983645297 91.92388155425118) rotate(45 0 0)" x="0" y="0" width="10" height="5" rx="1.25" ry="1.25" fill="#FF88FF"/> <rect stroke="black" transform="translate(84.8528137423857 102.5304832720494) rotate(-45 0 0)" x="0" y="0" width="10" height="5" rx="1.25" ry="1.25" fill="#FF88FF"/> <rect stroke="black" transform="translate(95.45941546018392 91.92388155425118) rotate(45 0 0)" x="0" y="0" width="10" height="5" rx="1.25" ry="1.25" fill="#FF88FF"/> <rect stroke="black" transform="translate(98.99494936611666 102.5304832720494) rotate(-45 0 0)" x="0" y="0" width="10" height="5" rx="1.25" ry="1.25" fill="#FF88FF"/><rect stroke="black" transform="translate(-3.5355339059327378 98.99494936611666) rotate(45 0 0)" x="0" y="0" width="10" height="5" rx="1.25" ry="1.25" fill="#88FFFF"/> <rect stroke="black" transform="translate(0.0 109.60155108391487) rotate(-45 0 0)" x="0" y="0" width="10" height="5" rx="1.25" ry="1.25" fill="#88FFFF"/> <rect stroke="black" transform="translate(10.606601717798213 98.99494936611666) rotate(45 0 0)" x="0" y="0" width="10" height="5" rx="1.25" ry="1.25" fill="#88FFFF"/> <rect stroke="black" transform="translate(14.142135623730951 109.60155108391487) rotate(-45 0 0)" x="0" y="0" width="10" height="5" rx="1.25" ry="1.25" fill="#88FFFF"/> <rect stroke="black" transform="translate(24.748737341529164 98.99494936611666) rotate(45 0 0)" x="0" y="0" width="10" height="5" rx="1.25" ry="1.25" fill="#88FFFF"/> <rect stroke="black" transform="translate(28.284271247461902 109.60155108391487) rotate(-45 0 0)" x="0" y="0" width="10" height="5" rx="1.25" ry="1.25" fill="#88FFFF"/> <rect stroke="black" transform="translate(38.890872965260115 98.99494936611666) rotate(45 0 0)" x="0" y="0" width="10" height="5" rx="1.25" ry="1.25" fill="#88FFFF"/> <rect stroke="black" transform="translate(42.42640687119285 109.60155108391487) rotate(-45 0 0)" x="0" y="0" width="10" height="5" rx="1.25" ry="1.25" fill="#88FFFF"/> <rect stroke="black" transform="translate(53.033008588991066 98.99494936611666) rotate(45 0 0)" x="0" y="0" width="10" height="5" rx="1.25" ry="1.25" fill="#88FFFF"/> <rect stroke="black" transform="translate(56.568542494923804 109.60155108391487) rotate(-45 0 0)" x="0" y="0" width="10" height="5" rx="1.25" ry="1.25" fill="#88FFFF"/> <rect stroke="black" transform="translate(67.17514421272202 98.99494936611666) rotate(45 0 0)" x="0" y="0" width="10" height="5" rx="1.25" ry="1.25" fill="#88FFFF"/> <rect stroke="black" transform="translate(70.71067811865476 109.60155108391487) rotate(-45 0 0)" x="0" y="0" width="10" height="5" rx="1.25" ry="1.25" fill="#88FFFF"/> <rect stroke="black" transform="translate(81.31727983645297 98.99494936611666) rotate(45 0 0)" x="0" y="0" width="10" height="5" rx="1.25" ry="1.25" fill="#88FFFF"/> <rect stroke="black" transform="translate(84.8528137423857 109.60155108391487) rotate(-45 0 0)" x="0" y="0" width="10" height="5" rx="1.25" ry="1.25" fill="#88FFFF"/> <rect stroke="black" transform="translate(95.45941546018392 98.99494936611666) rotate(45 0 0)" x="0" y="0" width="10" height="5" rx="1.25" ry="1.25" fill="#88FFFF"/> <rect stroke="black" transform="translate(98.99494936611666 109.60155108391487) rotate(-45 0 0)" x="0" y="0" width="10" height="5" rx="1.25" ry="1.25" fill="#88FFFF"/></svg>
